Patient4_TMGait_0pt6_01_right_05_EMG.mot
version=1
nRows=16
nColumns=33
inDegrees=no
endheader
time	1LAddLong	2LGlutMax	3LGlutMed	4LIliopsoas	5LSemiMemb	6LBicFemLong	7LRecFem	8LVastMed	9LVastLat	10LGasMed	11LTibAnt	12lTibPost	13LPeroneusLong	14LSol	15LExtDigLong	16LFlexDigLong	17RAddLong	18RGlutMax	19RGlutMed	20RIliopsoas	21RSemiMemb	22RBicFemLong	23RRecFem	24RVastMed	25RVastLat	26RGasMed	27RTibAnt	28RTibPost	29RPeroneusLong	30RSol	31RExtDigLong	32RFlexDigLong
5.85	-0.004272	-0.33249	0.038605	-0.02594	0.004883	0.020752	0.19424	0.015564	0.014801	0.036774	0.011292	-0.021362	-0.096741	0.027771	0.30365	-0.026245	0.022125	-0.99838	-0.41168	0.046692	0.24307	0.003357	-0.042725	0.1796	0.13062	0.033112	0.16556	-0.050507	0.037079	-0.075684	0.000458	-0.019531
5.851	0.001221	-0.31448	0.077972	-0.02655	0.005646	0.008698	0.14053	0.016174	0.005951	0.0383	0.013275	-0.010986	-0.080261	-0.009766	0.16937	-0.018463	0.04715	-1.0722	-0.33539	0.045471	-0.05127	-0.16098	0.08194	0.091858	0.18585	0.039673	-0.052643	-0.068817	-0.02655	-0.13626	-0.000305	-0.015717
5.852	-0.024567	-0.29037	0.10178	-0.002289	0.008392	0.016937	0.082703	0.017242	-0.00412	0.042572	0.014038	-0.007019	-0.036163	-0.11978	0.11353	-0.004883	0.037842	-1.1333	-0.37842	0.022736	0.037994	-0.40527	0.11429	-0.042114	0.15701	0.057983	-0.89722	-0.083923	-0.13779	-0.55283	0.007629	-0.013733
5.853	-0.017548	-0.3125	0.1088	0.005035	0.009613	0.017548	0.1416	0.003204	-0.004883	0.033264	0.011292	-0.010681	0.002136	-0.085297	0.10712	-0.007019	0.059204	-1.1154	-0.28915	-0.006561	0.14893	-0.64575	0.1297	-0.1709	0.09552	0.040283	-1.113	-0.10452	-0.23041	-0.52292	-0.001221	-0.019836
5.854	-0.027008	-0.34027	0.21118	-0.014648	0.011749	0.008545	0.12177	0.009003	-0.002136	0.028229	-0.10101	-0.010529	-0.007324	-0.00473	0.047302	-0.016479	0.052032	-1.0344	-0.31754	0.001831	0.050201	-0.80154	-0.005341	-0.1297	0.1297	-0.022583	-0.71564	-0.097046	-0.006256	-0.80963	-0.00061	-0.015106
5.855	-0.018463	-0.33554	0.22629	-0.000916	0.008545	0.005798	0.077209	0.008087	-0.005646	0.056763	-0.088806	-0.009308	-0.05127	0.052948	0.009155	0.001221	-0.024719	-1.1223	-0.33524	-0.013123	-0.061035	-0.54077	-0.032959	0.1294	0.13825	0.002136	-0.90973	-0.10513	0.47806	-1.2729	-0.002136	-0.014801
5.856	-0.014648	-0.27359	0.20889	-0.002289	0.004578	0.010834	0.012207	-0.008545	-0.014343	0.058136	0.010681	0.000458	-0.018921	0.043945	-0.064545	0.010834	-0.030365	-1.1488	-0.42618	-0.027771	-0.31342	-0.15411	-0.092468	0.13001	0.10437	0.025635	-0.82199	-0.11124	0.90195	-1.209	0.006866	-0.007324
5.857	-0.003662	-0.22614	0.17777	0.00885	0.010071	0.010986	-0.060272	-0.005341	-0.012512	0.071259	0.11948	-0.005951	-0.033569	0.040131	-0.007019	0.025177	-0.028839	-1.1282	-0.41611	0.002899	-0.062866	-0.21881	-0.25955	-0.018768	0.049286	-0.012512	-0.49057	-0.076141	0.57312	-0.63934	-0.002136	-0.014343
5.858	-0.012207	-0.18646	0.13107	0.00885	0.011292	-0.004883	-0.12802	-0.007782	-0.029449	0.060883	0.18158	-0.015564	-0.065155	0.0737	0.33661	0.000305	-0.036011	-1.1465	-0.47882	0.030518	0.11887	-0.19684	-0.28824	0.019989	0.1059	-0.066223	-0.15472	0.007324	0.10941	-0.28778	-0.001678	-0.018616
5.859	-0.007935	-0.20355	0.081024	-0.00412	0.009003	0.00412	-0.08728	-0.00412	-0.0177	0.050964	0.19501	-0.00061	-0.09491	0.13123	0.65247	0.002441	-0.03067	-1.0915	-0.55985	-0.012665	0.08194	-0.1564	-0.16815	0.13214	0.070496	-0.079803	-0.14374	0.059967	-0.16144	1.4081	0.000153	-0.016632
5.86	-0.01236	-0.19531	0.081177	-0.016174	0.014038	-0.006714	-0.000763	0.000763	-0.020447	0.057068	-0.061493	-0.009918	-0.12863	0.09491	0.21057	0.000153	-0.016327	-1.1008	-0.4451	-0.083771	-0.005798	-0.22293	-0.070648	0.082092	0.03952	-0.13138	-0.27908	-0.2092	-0.097656	1.2794	0.002289	-0.012665
5.861	-0.001526	-0.18997	0.070801	-0.021515	0.007935	-0.026245	-0.032654	0.006866	-0.019989	0.077972	-0.31235	-0.005646	-0.14679	0.11948	0.53955	0.002747	-0.006714	-1.1067	-0.44037	-0.10849	0.003052	-0.25726	-0.070801	0.076294	0.11368	-0.066071	-0.029602	-0.51102	-0.30609	-0.24719	0.001526	-0.021057
5.862	-0.001526	-0.21103	-0.007935	-0.002441	0.003662	-0.00824	-0.12436	0.000305	-0.01236	0.054016	-0.36911	-0.010529	-0.050354	0.25909	0.50064	-0.002289	0.010376	-1.0136	-0.51788	-0.042419	-0.021362	-0.32471	0.018311	0.037689	0.087891	-0.095978	0.077972	-0.15167	-0.40543	-0.25909	0.003204	-0.015106
5.863	-0.001984	-0.18768	-0.03479	0.018005	0.011902	-0.012665	-0.215	-0.003662	-0.028839	0.035706	-0.045319	-0.003357	0.015564	0.33768	-0.51544	-0.005951	0.014954	-0.96176	-0.50339	0.013123	-0.014648	-0.42038	0.17227	-0.028229	0.021973	-0.10849	0.074005	0.54031	-0.34668	0.033875	0.000305	-0.012512
5.864	0.002899	-0.18204	-0.001831	0.013275	0.011139	-0.024719	-0.24292	-0.000305	-0.034027	0.026398	0.11032	-0.01236	-0.029755	0.31708	-0.56564	-0.010223	0.011444	-0.89447	-0.46539	0.086975	-0.048523	-0.45593	0.24307	-0.082245	-0.025024	-0.15686	0.27313	0.29083	-0.34622	0.50156	0.00061	-0.011902
5.865	-0.001526	-0.13016	0.02182	0.013123	0.014496	-0.027161	-0.20309	0.001373	-0.023499	0.040894	0.51315	-0.01236	-0.056915	0.23895	-1.0789	0.010071	0.004578	-0.81863	-0.58884	0.11856	-0.063324	-0.40237	0.27802	-0.054626	-0.040741	-0.3157	0.62897	-0.48187	-0.64514	0.77316	0	0.002289
